<svg xmlns="http://www.w3.org/2000/svg" width="1509" height="564" fill="none" viewBox="0 0 1509 564">
  <path fill="url(#paint0_linear_2_60)" d="M682.33 402.605c-9.033 3.418-19.287 5.127-30.762 5.127-37.597 0-56.396-18.188-56.396-54.565 0-34.424 18.799-51.636 56.396-51.636 11.475 0 21.729 1.709 30.762 5.127v17.578c-9.033-3.906-18.799-5.859-29.297-5.859-25.146 0-37.72 11.597-37.72 34.79 0 25.146 12.574 37.72 37.72 37.72 10.498 0 20.264-1.953 29.297-5.86v17.578zm18.311-36.767v-63.574h19.409v63.574c0 16.699 8.545 25.049 25.635 25.049 17.089 0 25.634-8.35 25.634-25.049v-63.574h19.41v63.574c0 27.93-15.015 41.894-45.044 41.894-30.03 0-45.044-13.964-45.044-41.894zM812.701 407V302.264h49.072c19.922 0 29.883 8.13 29.883 24.389 0 11.914-6.494 20.435-19.482 25.562 13.867 2.588 20.801 10.522 20.801 23.804 0 20.654-10.913 30.981-32.74 30.981h-47.534zm46.729-16.846c8.593 0 12.89-4.394 12.89-13.183 0-10.889-6.421-16.333-19.262-16.333h-5.86v-12.525c16.114-2.685 24.17-9.424 24.17-20.215 0-5.859-3.613-8.789-10.84-8.789H832.11v71.045h27.32zm121.801-87.89v16.699H928.79v26.367h49.951v17.358H928.57v27.466h53.687V407h-72.73V302.264h71.704zM1083.7 402.605c-9.04 3.418-19.29 5.127-30.76 5.127-37.6 0-56.401-18.188-56.401-54.565 0-34.424 18.801-51.636 56.401-51.636 11.47 0 21.72 1.709 30.76 5.127v17.578c-9.04-3.906-18.8-5.859-29.3-5.859-25.15 0-37.72 11.597-37.72 34.79 0 25.146 12.57 37.72 37.72 37.72 10.5 0 20.26-1.953 29.3-5.86v17.578zm18.31-36.767v-63.574h19.41v63.574c0 16.699 8.54 25.049 25.63 25.049s25.64-8.35 25.64-25.049v-63.574h19.41v63.574c0 27.93-15.02 41.894-45.05 41.894-30.03 0-45.04-13.964-45.04-41.894zM1214.07 407V302.264h49.07c19.92 0 29.88 8.13 29.88 24.389 0 11.914-6.49 20.435-19.48 25.562 13.87 2.588 20.8 10.522 20.8 23.804 0 20.654-10.91 30.981-32.74 30.981h-47.53zm46.73-16.846c8.59 0 12.89-4.394 12.89-13.183 0-10.889-6.42-16.333-19.27-16.333h-5.85v-12.525c16.11-2.685 24.17-9.424 24.17-20.215 0-5.859-3.62-8.789-10.84-8.789h-28.42v71.045h27.32zm121.8-87.89v16.699h-52.44v26.367h49.95v17.358h-50.17v27.466h53.68V407h-72.73V302.264h71.71zm59.98 87.89c21.73 0 32.6-12.793 32.6-38.379 0-21.777-10.87-32.666-32.6-32.666h-21.6v71.045h21.6zM1401.57 407V302.264h41.01c34.67 0 52.01 16.504 52.01 49.511 0 36.817-17.34 55.225-52.01 55.225h-41.01z"/>
  <path fill="#A61EE8" d="M780.636 502v-62.842h12.085l21.313 47.681 20.874-47.681h11.646V502h-10.767v-43.77L818.736 502h-9.931l-17.403-43.77V502h-10.766zm75.805-14.37c0-9.17 6.68-13.755 20.039-13.755 3.135 0 6.27.293 9.405.879v-3.472c0-4.131-2.974-6.196-8.921-6.196-5.039 0-10.635.732-16.787 2.197v-9.228c6.152-1.465 11.748-2.198 16.787-2.198 13.711 0 20.566 5.069 20.566 15.205V502h-6.767l-4.131-4.131c-4.014 2.754-8.438 4.131-13.272 4.131-11.279 0-16.919-4.79-16.919-14.37zm29.444-4.966c-2.93-.586-6.065-.879-9.405-.879-5.595 0-8.393 1.904-8.393 5.713 0 4.102 2.344 6.152 7.031 6.152 3.867 0 7.456-1.201 10.767-3.603v-7.383zm22.016-34.277h8.614l1.757 7.47h11.602v9.229h-10.327v21.226c0 4.306 1.86 6.459 5.581 6.459h4.746V502h-10.371c-7.734 0-11.602-4.146-11.602-12.437v-41.176zM937.828 502v-62.842h11.646v22.588c3.632-3.926 8.276-5.889 13.93-5.889 10.928 0 16.392 5.684 16.392 17.051V502H968.15v-29.092c0-5.097-2.534-7.646-7.602-7.646-3.779 0-7.471 1.509-11.074 4.526V502h-11.646zm82.222-23.247c0 9.639 3.74 14.458 11.21 14.458 7.47 0 11.2-4.819 11.2-14.458 0-9.404-3.73-14.107-11.2-14.107-7.47 0-11.21 4.703-11.21 14.107zm-11.65.176c0-15.469 7.62-23.203 22.86-23.203 15.23 0 22.85 7.734 22.85 23.203 0 15.439-7.62 23.159-22.85 23.159-15.18 0-22.8-7.72-22.86-23.159zM1062.9 502v-46.143h9.01l1.45 6.768c4.42-4.512 9.46-6.768 15.11-6.768 10.93 0 16.39 5.684 16.39 17.051V502h-11.64v-29.092c0-5.097-2.54-7.646-7.6-7.646-3.78 0-7.47 1.509-11.08 4.526V502h-11.64zm72.77-2.637v-10.547c6.3 2.344 13.42 3.516 21.36 3.516 9.64 0 14.46-3.223 14.46-9.668 0-4.687-2.96-7.031-8.88-7.031h-9.85c-12.86 0-19.29-5.86-19.29-17.578 0-12.891 9.16-19.336 27.47-19.336 7.03 0 13.69 1.025 19.99 3.076v10.547c-6.3-2.344-12.96-3.516-19.99-3.516-10.55 0-15.82 3.076-15.82 9.229 0 4.687 2.55 7.031 7.64 7.031h9.85c13.68 0 20.52 5.859 20.52 17.578 0 13.184-8.7 19.775-26.1 19.775-7.94 0-15.06-1.025-21.36-3.076zm117.2-60.205L1225.32 502h-12.53l-26.36-62.842h13.84l19.47 48.12 19.42-48.12h13.71zm56.69 59.942c-5.07 2.226-11.41 3.339-19.03 3.339-22.17 0-33.26-10.913-33.26-32.739 0-20.654 11.28-30.981 33.83-30.981 6.89 0 13.04 1.025 18.46 3.076v10.547c-5.42-2.344-11.28-3.516-17.58-3.516-15.08 0-22.63 6.958-22.63 20.874 0 15.088 7.12 22.632 21.36 22.632 2.11 0 4.51-.352 7.21-1.055v-18.281h11.64V499.1z"/>
  <path stroke="#560BFF" stroke-width="29.231" d="M579.457 109.018h106.86"/>
  <path stroke="#560BFF" stroke-width="26.043" d="M560.177 14H706"/>
  <path stroke="#560BFF" stroke-width="28.915" d="M564.899 235.014H706"/>
  <path stroke="#560BFF" stroke-width="32.982" d="M686.317 2.49v232.524"/>
  <g>
    <path fill="#2E0F52" d="M130.004 435.556H1.96v127.276h128.044V435.556z"/>
    <path fill="#D31DDE" d="M327.184 504.82H199.14l-69.943 58.689h128.044l69.943-58.689zM454.465 505.497H326.421l-68.329 57.335h128.044l68.329-57.335z"/>
    <path fill="#DCDCDC" d="M198.333 250.945H70.289L1.96 308.28h128.044l68.329-57.335z"/>
    <path fill="#D31DDE" d="M505.519 463.058H377.475L421.639 426h128.044l-44.164 37.058z"/>
    <path fill="#939393" fill-opacity=".72" d="M375.515 80.793H247.471l43.191-36.242h128.044l-43.191 36.242z"/>
    <path fill="#D31DDE" d="M503.559 208.837H375.515l43.191-36.242H546.75l-43.191 36.242z"/>
    <path fill="#560BFF" d="M455.228 378.665H327.184v127.276h128.044V378.665z"/>
    <path fill="#560BFF" d="M548.404 299.036H420.36v127.276h128.044V299.036zM324.417 377.447H196.373v127.276h128.044V377.447zM548.404 45.32H420.36v127.275h128.044V45.319z"/>
    <path fill="#D31DDE" d="M456.663 377H327.369l-69.764 58.539h129.294L456.663 377z"/>
    <path fill="#DCDCDC" d="M505.213 335.278H377.169l43.191-36.242h128.044l-43.191 36.242z"/>
    <path fill="#D31DDE" d="M506.868 80.793H375.515l43.191-36.242h131.353l-43.191 36.242zM247.471 80.793H119.427l43.191-36.242h128.044l-43.191 36.242zM454.421 377.89H326.377l51.098-42.876h128.044l-51.098 42.876z"/>
    <path fill="#560BFF" d="M454.413 250.171H326.369v127.276h128.044V250.171zM454.413 122.617H326.369v127.276h128.044V122.617z"/>
    <path fill="#560BFF" d="M505.528 208.837H377.484v127.276h128.044V208.837zM196.373 251.72H68.329v127.276h128.044V251.72z"/>
    <path fill="#D31DDE" d="M326.377 250.945H198.333l-68.329 57.335h128.044l68.329-57.335z"/>
    <path fill="#D31DDE" d="M451.734 250.171H323.69l-68.329 57.335h128.044l68.329-57.335zM196.373 378.583H68.329L0 435.918h128.045l68.329-57.335zM199.328 122h-127.7L.855 181.387h127.699L199.328 122z"/>
    <path fill="#DCDCDC" d="M451.734 124.052H323.69l-68.329 57.335h128.044l68.329-57.335z"/>
    <path fill="#A61EE8" d="M70.296 378.215V250.171L1.96 307.512v128.044l68.337-57.341zM198.062 505.981V377.937l-68.336 57.341v128.044l68.336-57.341zM198.062 252.09V124.046l-68.336 57.341v128.044l68.336-57.341zM326.428 377.937V249.893l-68.337 57.341v128.044l68.337-57.341z"/>
    <path fill="#A61EE8" d="M196.543 251.413V123.369l51.106-42.884V208.53l-51.106 42.884z"/>
    <path fill="#2E0F52" d="M258.048 308.28H130.004v127.276h128.044V308.28z"/>
    <path fill="#560BFF" d="M324.417 125.727H196.373v127.276h128.044V125.727z"/>
    <path fill="#560BFF" d="M375.515 79.694H247.471V206.97h128.044V79.694z"/>
    <path fill="#2E0F52" d="M327.185 122.371H199.141l-68.33 57.335h128.044l68.33-57.335z"/>
    <path fill="#D31DDE" d="M455.228 122.371H327.184L257.314 181h128.044l69.87-58.629z"/>
    <path fill="#2E0F52" d="M386.092 435.556H258.048v127.276h128.044V435.556zM130.004 181.004H1.96V308.28h128.044V181.004z"/>
    <path fill="#191A2A" d="M386.092 181.004H258.048V308.28h128.044V181.004z"/>
    <path fill="#2E0F52" d="M386.092 181.004H258.048V308.28h128.044V181.004zM454.428 379.95V247.754l-68.336 57.342v132.195l68.336-57.341z"/>
    <path fill="#2E0F52" d="M454.421 251.72V123.676l51.107-42.883v128.044l-51.107 42.883zM454.413 505.941V377.897l51.106-42.883v128.044l-51.106 42.883zM505.528 335.014V206.97l42.876-35.978v128.044l-42.876 35.978zM454.421 123.669h-130.52l51.098-42.876h130.52l-51.098 42.876zM196.373 123.669H68.329l51.098-42.876h128.044l-51.098 42.876zM375.515 80.793H247.471l43.191-36.242h128.044l-43.191 36.242z"/>
  </g>
  <defs>
    <linearGradient id="paint0_linear_2_60" x1="608" x2="1542" y1="450" y2="316" gradientUnits="userSpaceOnUse">
      <stop offset=".203" stop-color="#560BFF"/>
      <stop offset=".642" stop-color="#A61EE8"/>
      <stop offset=".871" stop-color="#D31DDE"/>
    </linearGradient>
  </defs>
</svg>
