<svg cache-id="41cd98db9ce84fac92ac012b261d04bc" id="ekMn4OQmp9T1" xmlns="http://www.w3.org/2000/svg" xmlns:xlink="http://www.w3.org/1999/xlink" viewBox="0 0 480 480" shape-rendering="geometricPrecision" text-rendering="geometricPrecision"><g id="ekMn4OQmp9T2" transform="matrix(1.875967 0 0 1.875967 -119.565539 -310.381083)"><rect id="ekMn4OQmp9T3" width="140.870976" height="140.027049" rx="0" ry="0" transform="matrix(0.394423 0 0 0.39442 73.311742 350.458938)" fill="rgb(46,15,82)" stroke="none" stroke-width="0"/><rect id="ekMn4OQmp9T4" width="140.870976" height="140.027049" rx="0" ry="0" transform="matrix(0.394423 0 -0.21675 0.181875 158.87519 380.514834)" fill="rgb(211,29,222)" stroke="none" stroke-width="0"/><rect id="ekMn4OQmp9T5" width="140.870976" height="140.027049" rx="0" ry="0" transform="matrix(0.394423 0 -0.211748 0.177678 214.106659 380.808681)" fill="rgb(211,29,222)" stroke="none" stroke-width="0"/><rect id="ekMn4OQmp9T6" width="140.870976" height="140.027049" rx="0" ry="0" transform="matrix(0.394423 0 -0.211748 0.177678 102.962245 270.349743)" fill="rgb(220,220,220)" stroke="none" stroke-width="0"/><rect id="ekMn4OQmp9T7" width="140.870976" height="140.027049" rx="0" ry="0" transform="matrix(0.394423 0 0.133846 -0.11231 236.260962 362.392805)" fill="rgb(211,29,222)" stroke="none" stroke-width="0"/><rect id="ekMn4OQmp9T8" width="140.870976" height="140.027049" rx="0" ry="0" transform="matrix(0.394423 0 0.133846 -0.11231 179.847599 196.514741)" fill="rgba(147,147,147,0.72)" stroke="none" stroke-width="0"/><rect id="ekMn4OQmp9T9" width="140.870976" height="140.027049" rx="0" ry="0" transform="matrix(0.394423 0 0.133846 -0.11231 235.410352 252.077494)" fill="rgb(211,29,222)" stroke="none" stroke-width="0"/><rect id="ekMn4OQmp9T10" width="140.870976" height="140.027049" rx="0" ry="0" transform="matrix(0.394423 0 0 0.39442 214.438025 325.772037)" fill="rgb(86,11,255)" stroke="none" stroke-width="0"/><rect id="ekMn4OQmp9T11" width="140.870976" height="140.027049" rx="0" ry="0" transform="matrix(0.394423 0 0 0.39442 254.87027 291.218155)" fill="rgb(86,11,255)" stroke="none" stroke-width="0"/><rect id="ekMn4OQmp9T12" width="140.870976" height="140.027049" rx="0" ry="0" transform="matrix(0.394423 0 0 0.39442 157.674387 325.243346)" fill="rgb(86,11,255)" stroke="none" stroke-width="0"/><rect id="ekMn4OQmp9T13" width="140.870976" height="140.027049" rx="0" ry="0" transform="matrix(0.394423 0 0 0.39442 254.87027 181.121587)" fill="rgb(86,11,255)" stroke="none" stroke-width="0"/><rect id="ekMn4OQmp9T14" width="140.870976" height="140.027049" rx="0" ry="0" transform="matrix(0.394423 0 -0.211748 0.177678 214.438025 325.571732)" fill="rgb(211,29,222)" stroke="none" stroke-width="0"/><rect id="ekMn4OQmp9T15" width="140.870976" height="140.027049" rx="0" ry="0" transform="matrix(0.394423 0 0.133846 -0.11231 236.128231 306.944593)" fill="rgb(220,220,220)" stroke="none" stroke-width="0"/><rect id="ekMn4OQmp9T16" width="140.870976" height="140.027049" rx="0" ry="0" transform="matrix(0.404615 0 0.133846 -0.11231 235.410353 196.51474)" fill="rgb(211,29,222)" stroke="none" stroke-width="0"/><rect id="ekMn4OQmp9T17" width="140.870976" height="140.027049" rx="0" ry="0" transform="matrix(0.394423 0 0.133846 -0.11231 124.284846 196.51474)" fill="rgb(211,29,222)" stroke="none" stroke-width="0"/><rect id="ekMn4OQmp9T18" width="140.870976" height="140.027049" rx="0" ry="0" transform="matrix(0.394423 0 0.158349 -0.132871 214.08775 325.435586)" fill="rgb(211,29,222)" stroke="none" stroke-width="0"/><rect id="ekMn4OQmp9T19" width="140.870976" height="140.027049" rx="0" ry="0" transform="matrix(0.394423 0 0 0.39442 214.083984 270.013877)" fill="rgb(86,11,255)" stroke="none" stroke-width="0"/><rect id="ekMn4OQmp9T20" width="140.870976" height="140.027049" rx="0" ry="0" transform="matrix(0.394423 0 0 0.39442 214.083984 214.663741)" fill="rgb(86,11,255)" stroke="none" stroke-width="0"/><rect id="ekMn4OQmp9T21" width="140.870976" height="140.027049" rx="0" ry="0" transform="matrix(0.394423 0 0 0.39442 236.264736 252.077494)" fill="rgb(86,11,255)" stroke="none" stroke-width="0"/><rect id="ekMn4OQmp9T22" width="140.870976" height="140.027049" rx="0" ry="0" transform="matrix(0.394423 0 0 0.39442 102.111634 270.686194)" fill="rgb(86,11,255)" stroke="none" stroke-width="0"/><rect id="ekMn4OQmp9T23" width="140.870976" height="140.027049" rx="0" ry="0" transform="matrix(0.394423 0 -0.211748 0.177678 158.524997 270.349743)" fill="rgb(211,29,222)" stroke="none" stroke-width="0"/><rect id="ekMn4OQmp9T24" width="140.870976" height="140.027049" rx="0" ry="0" transform="matrix(0.394423 0 -0.211748 0.177678 212.921804 270.013878)" fill="rgb(211,29,222)" stroke="none" stroke-width="0"/><rect id="ekMn4OQmp9T25" width="140.870976" height="140.027049" rx="0" ry="0" transform="matrix(0.394423 0 -0.211748 0.177678 102.111634 325.736215)" fill="rgb(211,29,222)" stroke="none" stroke-width="0"/><rect id="ekMn4OQmp9T26" width="140.870976" height="140.027049" rx="0" ry="0" transform="matrix(0.394423 0 -0.211748 0.177678 102.111634 215.286377)" fill="rgb(211,29,222)" stroke="none" stroke-width="0"/><rect id="ekMn4OQmp9T27" width="140.870976" height="140.027049" rx="0" ry="0" transform="matrix(0.394423 0 -0.211748 0.177678 212.921804 215.286377)" fill="rgb(220,220,220)" stroke="none" stroke-width="0"/><rect id="ekMn4OQmp9T28" width="140.870976" height="166.89506" rx="0" ry="0" transform="matrix(0 0.394423 -0.177678 0.14909 102.965322 270.013878)" fill="rgb(166,30,232)" stroke="none" stroke-width="0"/><rect id="ekMn4OQmp9T29" width="140.870976" height="166.89506" rx="0" ry="0" transform="matrix(0 0.394423 -0.177678 0.14909 158.407409 325.455963)" fill="rgb(166,30,232)" stroke="none" stroke-width="0"/><rect id="ekMn4OQmp9T30" width="140.870976" height="166.89506" rx="0" ry="0" transform="matrix(0 0.394423 -0.177678 0.14909 158.407415 215.283795)" fill="rgb(166,30,232)" stroke="none" stroke-width="0"/><rect id="ekMn4OQmp9T31" width="140.870976" height="166.89506" rx="0" ry="0" transform="matrix(0 0.394423 -0.177678 0.14909 214.109736 269.89321)" fill="rgb(166,30,232)" stroke="none" stroke-width="0"/><rect id="ekMn4OQmp9T32" width="140.870976" height="166.906147" rx="0" ry="0" transform="matrix(0 0.394423 0.132871 -0.111492 157.747962 214.989907)" fill="rgb(166,30,232)" stroke="none" stroke-width="0"/><rect id="ekMn4OQmp9T33" width="140.870976" height="140.027049" rx="0" ry="0" transform="matrix(0.394423 0 0 0.39442 128.874494 295.229469)" fill="rgb(46,15,82)" stroke="none" stroke-width="0"/><rect id="ekMn4OQmp9T34" width="140.870976" height="140.027049" rx="0" ry="0" transform="matrix(0.394423 0 0 0.39442 157.674387 216.013258)" fill="rgb(86,11,255)" stroke="none" stroke-width="0"/><rect id="ekMn4OQmp9T35" width="140.870976" height="140.027049" rx="0" ry="0" transform="matrix(0.394423 0 0 0.39442 179.847599 196.03783)" fill="rgb(86,11,255)" stroke="none" stroke-width="0"/><rect id="ekMn4OQmp9T36" width="140.870976" height="140.027049" rx="0" ry="0" transform="matrix(0.394423 0 -0.211748 0.177678 158.875272 214.557079)" fill="rgb(46,15,82)" stroke="none" stroke-width="0"/><rect id="ekMn4OQmp9T37" width="140.870976" height="140.027049" rx="0" ry="0" transform="matrix(0.394423 0 -0.211748 0.177678 214.438025 214.557079)" fill="rgb(211,29,222)" stroke="none" stroke-width="0"/><rect id="ekMn4OQmp9T38" width="140.870976" height="140.027049" rx="0" ry="0" transform="matrix(0.394423 0 0 0.39442 184.437247 350.458938)" fill="rgb(46,15,82)" stroke="none" stroke-width="0"/><rect id="ekMn4OQmp9T39" width="140.870976" height="140.027049" rx="0" ry="0" transform="matrix(0.394423 0 0 0.39442 73.311741 240)" fill="rgb(46,15,82)" stroke="none" stroke-width="0"/><rect id="ekMn4OQmp9T40" width="140.870976" height="140.027049" rx="0" ry="0" transform="matrix(0.394423 0 0 0.39442 184.437247 240)" fill="rgb(25,26,42)" stroke="none" stroke-width="0"/><rect id="ekMn4OQmp9T41" width="140.870976" height="140.027049" rx="0" ry="0" transform="matrix(0.394423 0 0 0.39442 184.437247 240)" fill="rgb(46,15,82)" stroke="none" stroke-width="0"/><rect id="ekMn4OQmp9T42" width="140.870976" height="166.89506" rx="0" ry="0" transform="matrix(0 0.394423 -0.177678 0.14909 269.65358 270.013877)" fill="rgb(46,15,82)" stroke="none" stroke-width="0"/><rect id="ekMn4OQmp9T43" width="140.870976" height="166.906147" rx="0" ry="0" transform="matrix(0 0.394423 0.132871 -0.111492 269.650503 215.123441)" fill="rgb(46,15,82)" stroke="none" stroke-width="0"/><rect id="ekMn4OQmp9T44" width="140.870976" height="166.906147" rx="0" ry="0" transform="matrix(0 0.394423 0.132871 -0.111492 269.646737 325.438753)" fill="rgb(46,15,82)" stroke="none" stroke-width="0"/><rect id="ekMn4OQmp9T45" width="140.870976" height="140.027049" rx="0" ry="0" transform="matrix(0 0.394423 0.132871 -0.111492 291.827489 251.267299)" fill="rgb(46,15,82)" stroke="none" stroke-width="0"/><rect id="ekMn4OQmp9T46" width="140.870976" height="140.027049" rx="0" ry="0" transform="matrix(0.394423 0 0.158349 -0.132871 214.08775 215.120274)" fill="rgb(46,15,82)" stroke="none" stroke-width="0"/><rect id="ekMn4OQmp9T47" width="140.870976" height="140.027049" rx="0" ry="0" transform="matrix(0.394423 0 0.158349 -0.132871 102.111634 215.120274)" fill="rgb(46,15,82)" stroke="none" stroke-width="0"/><rect id="ekMn4OQmp9T48" width="140.870976" height="140.027049" rx="0" ry="0" transform="matrix(0.394423 0 0.133846 -0.11231 179.847599 196.514741)" fill="rgb(46,15,82)" stroke="none" stroke-width="0"/></g><path id="ekMn4OQmp9T49" d="" transform="matrix(1 0 0 1 -33.83414 0)" fill="none" stroke="rgb(63,87,135)" stroke-width="0.96"/></svg>