<svg id="e7A3E5WbINC1" xmlns="http://www.w3.org/2000/svg" xmlns:xlink="http://www.w3.org/1999/xlink" viewBox="0 0 480 480" shape-rendering="geometricPrecision" text-rendering="geometricPrecision"><g id="e7A3E5WbINC2" transform="matrix(1.516559 0 0 1.516559 -123.97416 -110.134321)"><g id="e7A3E5WbINC3" transform="matrix(1 0 0 1 72.549472 -40.42374)"><line id="e7A3E5WbINC4" x1="-4.084217" y1="0" x2="24" y2="0" transform="matrix(1.651127 0 0 1 272.461548 195.801225)" fill="none" stroke="rgb(86,11,255)" stroke-width="15"/><line id="e7A3E5WbINC5" x1="-24" y1="0" x2="24.281124" y2="0.000001" transform="matrix(1.310607 0 0 0.999999 288.806508 155.676406)" fill="none" stroke="rgb(86,11,255)" stroke-width="15"/><line id="e7A3E5WbINC6" x1="-24" y1="0" x2="13.89629" y2="0.000001" transform="matrix(1.615684 0 0 1 298.177507 250.475253)" fill="none" stroke="rgb(86,11,255)" stroke-width="15"/><line id="e7A3E5WbINC7" x1="-24" y1="0" x2="24" y2="0" transform="matrix(0 2.102086 -1 0 312.0886 200.025189)" fill="none" stroke="rgb(86,11,255)" stroke-width="15"/></g><g id="e7A3E5WbINC8" transform="matrix(1 0 0 1 14.359799 -53.385269)"><rect id="e7A3E5WbINC9" width="140.870976" height="140.027049" rx="0" ry="0" transform="matrix(0.394423 0 0 0.39442 73.311742 350.458938)" fill="rgb(46,15,82)" stroke="none" stroke-width="0"/><rect id="e7A3E5WbINC10" width="140.870976" height="140.027049" rx="0" ry="0" transform="matrix(0.394423 0 -0.21675 0.181875 158.87519 380.514834)" fill="rgb(211,29,222)" stroke="none" stroke-width="0"/><rect id="e7A3E5WbINC11" width="140.870976" height="140.027049" rx="0" ry="0" transform="matrix(0.394423 0 -0.211748 0.177678 214.106659 380.808681)" fill="rgb(211,29,222)" stroke="none" stroke-width="0"/><rect id="e7A3E5WbINC12" width="140.870976" height="140.027049" rx="0" ry="0" transform="matrix(0.394423 0 -0.211748 0.177678 102.962245 270.349743)" fill="rgb(220,220,220)" stroke="none" stroke-width="0"/><rect id="e7A3E5WbINC13" width="140.870976" height="140.027049" rx="0" ry="0" transform="matrix(0.394423 0 0.133846 -0.11231 236.260962 362.392805)" fill="rgb(211,29,222)" stroke="none" stroke-width="0"/><rect id="e7A3E5WbINC14" width="140.870976" height="140.027049" rx="0" ry="0" transform="matrix(0.394423 0 0.133846 -0.11231 179.847599 196.514741)" fill="rgba(147,147,147,0.72)" stroke="none" stroke-width="0"/><rect id="e7A3E5WbINC15" width="140.870976" height="140.027049" rx="0" ry="0" transform="matrix(0.394423 0 0.133846 -0.11231 235.410352 252.077494)" fill="rgb(211,29,222)" stroke="none" stroke-width="0"/><rect id="e7A3E5WbINC16" width="140.870976" height="140.027049" rx="0" ry="0" transform="matrix(0.394423 0 0 0.39442 214.438025 325.772037)" fill="rgb(86,11,255)" stroke="none" stroke-width="0"/><rect id="e7A3E5WbINC17" width="140.870976" height="140.027049" rx="0" ry="0" transform="matrix(0.394423 0 0 0.39442 254.87027 291.218155)" fill="rgb(86,11,255)" stroke="none" stroke-width="0"/><rect id="e7A3E5WbINC18" width="140.870976" height="140.027049" rx="0" ry="0" transform="matrix(0.394423 0 0 0.39442 157.674387 325.243346)" fill="rgb(86,11,255)" stroke="none" stroke-width="0"/><rect id="e7A3E5WbINC19" width="140.870976" height="140.027049" rx="0" ry="0" transform="matrix(0.394423 0 0 0.39442 254.87027 181.121587)" fill="rgb(86,11,255)" stroke="none" stroke-width="0"/><rect id="e7A3E5WbINC20" width="140.870976" height="140.027049" rx="0" ry="0" transform="matrix(0.394423 0 -0.211748 0.177678 214.438025 325.571732)" fill="rgb(211,29,222)" stroke="none" stroke-width="0"/><rect id="e7A3E5WbINC21" width="140.870976" height="140.027049" rx="0" ry="0" transform="matrix(0.394423 0 0.133846 -0.11231 236.128231 306.944593)" fill="rgb(220,220,220)" stroke="none" stroke-width="0"/><rect id="e7A3E5WbINC22" width="140.870976" height="140.027049" rx="0" ry="0" transform="matrix(0.404615 0 0.133846 -0.11231 235.410353 196.51474)" fill="rgb(211,29,222)" stroke="none" stroke-width="0"/><rect id="e7A3E5WbINC23" width="140.870976" height="140.027049" rx="0" ry="0" transform="matrix(0.394423 0 0.133846 -0.11231 124.284846 196.51474)" fill="rgb(211,29,222)" stroke="none" stroke-width="0"/><rect id="e7A3E5WbINC24" width="140.870976" height="140.027049" rx="0" ry="0" transform="matrix(0.394423 0 0.158349 -0.132871 214.08775 325.435586)" fill="rgb(211,29,222)" stroke="none" stroke-width="0"/><rect id="e7A3E5WbINC25" width="140.870976" height="140.027049" rx="0" ry="0" transform="matrix(0.394423 0 0 0.39442 214.083984 270.013877)" fill="rgb(86,11,255)" stroke="none" stroke-width="0"/><rect id="e7A3E5WbINC26" width="140.870976" height="140.027049" rx="0" ry="0" transform="matrix(0.394423 0 0 0.39442 214.083984 214.663741)" fill="rgb(86,11,255)" stroke="none" stroke-width="0"/><rect id="e7A3E5WbINC27" width="140.870976" height="140.027049" rx="0" ry="0" transform="matrix(0.394423 0 0 0.39442 236.264736 252.077494)" fill="rgb(86,11,255)" stroke="none" stroke-width="0"/><rect id="e7A3E5WbINC28" width="140.870976" height="140.027049" rx="0" ry="0" transform="matrix(0.394423 0 0 0.39442 102.111634 270.686194)" fill="rgb(86,11,255)" stroke="none" stroke-width="0"/><rect id="e7A3E5WbINC29" width="140.870976" height="140.027049" rx="0" ry="0" transform="matrix(0.394423 0 -0.211748 0.177678 158.524997 270.349743)" fill="rgb(211,29,222)" stroke="none" stroke-width="0"/><rect id="e7A3E5WbINC30" width="140.870976" height="140.027049" rx="0" ry="0" transform="matrix(0.394423 0 -0.211748 0.177678 212.921804 270.013878)" fill="rgb(211,29,222)" stroke="none" stroke-width="0"/><rect id="e7A3E5WbINC31" width="140.870976" height="140.027049" rx="0" ry="0" transform="matrix(0.394423 0 -0.211748 0.177678 102.111634 325.736215)" fill="rgb(211,29,222)" stroke="none" stroke-width="0"/><rect id="e7A3E5WbINC32" width="140.870976" height="140.027049" rx="0" ry="0" transform="matrix(0.394423 0 -0.211748 0.177678 102.111634 215.286377)" fill="rgb(211,29,222)" stroke="none" stroke-width="0"/><rect id="e7A3E5WbINC33" width="140.870976" height="140.027049" rx="0" ry="0" transform="matrix(0.394423 0 -0.211748 0.177678 212.921804 215.286377)" fill="rgb(220,220,220)" stroke="none" stroke-width="0"/><rect id="e7A3E5WbINC34" width="140.870976" height="166.89506" rx="0" ry="0" transform="matrix(0 0.394423 -0.177678 0.14909 102.965322 270.013878)" fill="rgb(166,30,232)" stroke="none" stroke-width="0"/><rect id="e7A3E5WbINC35" width="140.870976" height="166.89506" rx="0" ry="0" transform="matrix(0 0.394423 -0.177678 0.14909 158.407409 325.455963)" fill="rgb(166,30,232)" stroke="none" stroke-width="0"/><rect id="e7A3E5WbINC36" width="140.870976" height="166.89506" rx="0" ry="0" transform="matrix(0 0.394423 -0.177678 0.14909 158.407415 215.283795)" fill="rgb(166,30,232)" stroke="none" stroke-width="0"/><rect id="e7A3E5WbINC37" width="140.870976" height="166.89506" rx="0" ry="0" transform="matrix(0 0.394423 -0.177678 0.14909 214.109736 269.89321)" fill="rgb(166,30,232)" stroke="none" stroke-width="0"/><rect id="e7A3E5WbINC38" width="140.870976" height="166.906147" rx="0" ry="0" transform="matrix(0 0.394423 0.132871 -0.111492 157.747962 214.989907)" fill="rgb(166,30,232)" stroke="none" stroke-width="0"/><rect id="e7A3E5WbINC39" width="140.870976" height="140.027049" rx="0" ry="0" transform="matrix(0.394423 0 0 0.39442 128.874494 295.229469)" fill="rgb(46,15,82)" stroke="none" stroke-width="0"/><rect id="e7A3E5WbINC40" width="140.870976" height="140.027049" rx="0" ry="0" transform="matrix(0.394423 0 0 0.39442 157.674387 216.013258)" fill="rgb(86,11,255)" stroke="none" stroke-width="0"/><rect id="e7A3E5WbINC41" width="140.870976" height="140.027049" rx="0" ry="0" transform="matrix(0.394423 0 0 0.39442 179.847599 196.03783)" fill="rgb(86,11,255)" stroke="none" stroke-width="0"/><rect id="e7A3E5WbINC42" width="140.870976" height="140.027049" rx="0" ry="0" transform="matrix(0.394423 0 -0.211748 0.177678 158.875272 214.557079)" fill="rgb(46,15,82)" stroke="none" stroke-width="0"/><rect id="e7A3E5WbINC43" width="140.870976" height="140.027049" rx="0" ry="0" transform="matrix(0.394423 0 -0.211748 0.177678 214.438025 214.557079)" fill="rgb(211,29,222)" stroke="none" stroke-width="0"/><rect id="e7A3E5WbINC44" width="140.870976" height="140.027049" rx="0" ry="0" transform="matrix(0.394423 0 0 0.39442 184.437247 350.458938)" fill="rgb(46,15,82)" stroke="none" stroke-width="0"/><rect id="e7A3E5WbINC45" width="140.870976" height="140.027049" rx="0" ry="0" transform="matrix(0.394423 0 0 0.39442 73.311741 240)" fill="rgb(46,15,82)" stroke="none" stroke-width="0"/><rect id="e7A3E5WbINC46" width="140.870976" height="140.027049" rx="0" ry="0" transform="matrix(0.394423 0 0 0.39442 184.437247 240)" fill="rgb(25,26,42)" stroke="none" stroke-width="0"/><rect id="e7A3E5WbINC47" width="140.870976" height="140.027049" rx="0" ry="0" transform="matrix(0.394423 0 0 0.39442 184.437247 240)" fill="rgb(46,15,82)" stroke="none" stroke-width="0"/><rect id="e7A3E5WbINC48" width="140.870976" height="166.89506" rx="0" ry="0" transform="matrix(0 0.394423 -0.177678 0.14909 269.65358 270.013877)" fill="rgb(46,15,82)" stroke="none" stroke-width="0"/><rect id="e7A3E5WbINC49" width="140.870976" height="166.906147" rx="0" ry="0" transform="matrix(0 0.394423 0.132871 -0.111492 269.650503 215.123441)" fill="rgb(46,15,82)" stroke="none" stroke-width="0"/><rect id="e7A3E5WbINC50" width="140.870976" height="166.906147" rx="0" ry="0" transform="matrix(0 0.394423 0.132871 -0.111492 269.646737 325.438753)" fill="rgb(46,15,82)" stroke="none" stroke-width="0"/><rect id="e7A3E5WbINC51" width="140.870976" height="140.027049" rx="0" ry="0" transform="matrix(0 0.394423 0.132871 -0.111492 291.827489 251.267299)" fill="rgb(46,15,82)" stroke="none" stroke-width="0"/><rect id="e7A3E5WbINC52" width="140.870976" height="140.027049" rx="0" ry="0" transform="matrix(0.394423 0 0.158349 -0.132871 214.08775 215.120274)" fill="rgb(46,15,82)" stroke="none" stroke-width="0"/><rect id="e7A3E5WbINC53" width="140.870976" height="140.027049" rx="0" ry="0" transform="matrix(0.394423 0 0.158349 -0.132871 102.111634 215.120274)" fill="rgb(46,15,82)" stroke="none" stroke-width="0"/><rect id="e7A3E5WbINC54" width="140.870976" height="140.027049" rx="0" ry="0" transform="matrix(0.394423 0 0.133846 -0.11231 179.847599 196.514741)" fill="rgb(46,15,82)" stroke="none" stroke-width="0"/></g></g><path id="e7A3E5WbINC55" d="" transform="matrix(1 0 0 1 -33.83414 0)" fill="none" stroke="rgb(63,87,135)" stroke-width="0.96"/></svg>