<svg xmlns="http://www.w3.org/2000/svg" width="1509" height="564" fill="none" viewBox="0 0 1509 564">
  <path fill="url(#a)" d="M679.158 393.425c1.1 0 2.075.425 2.925 1.275l7.95 8.625c-4.4 5.45-9.825 9.625-16.275 12.525-6.4 2.9-14.1 4.35-23.1 4.35-8.05 0-15.3-1.375-21.75-4.125-6.4-2.75-11.875-6.575-16.425-11.475-4.55-4.9-8.05-10.75-10.5-17.55-2.4-6.8-3.6-14.225-3.6-22.275 0-8.15 1.3-15.6 3.9-22.35 2.6-6.8 6.25-12.65 10.95-17.55 4.75-4.9 10.4-8.7 16.95-11.4 6.55-2.75 13.8-4.125 21.75-4.125 7.9 0 14.9 1.3 21 3.9 6.15 2.6 11.375 6 15.675 10.2l-6.75 9.375c-.4.6-.925 1.125-1.575 1.575-.6.45-1.45.675-2.55.675-.75 0-1.525-.2-2.325-.6a60.57 60.57 0 0 1-2.625-1.575 66.28 66.28 0 0 0-3.3-2.1c-1.25-.75-2.7-1.425-4.35-2.025-1.65-.65-3.575-1.175-5.775-1.575-2.15-.45-4.65-.675-7.5-.675-4.85 0-9.3.875-13.35 2.625-4 1.7-7.45 4.2-10.35 7.5-2.9 3.25-5.15 7.25-6.75 12-1.6 4.7-2.4 10.075-2.4 16.125 0 6.1.85 11.525 2.55 16.275 1.75 4.75 4.1 8.75 7.05 12a30.372 30.372 0 0 0 10.425 7.5c4 1.7 8.3 2.55 12.9 2.55 2.75 0 5.225-.15 7.425-.45 2.25-.3 4.3-.775 6.15-1.425 1.9-.65 3.675-1.475 5.325-2.475 1.7-1.05 3.375-2.325 5.025-3.825.5-.45 1.025-.8 1.575-1.05.55-.3 1.125-.45 1.725-.45Zm68.345 9.3c3.9 0 7.375-.65 10.425-1.95 3.1-1.3 5.7-3.125 7.8-5.475 2.1-2.35 3.7-5.2 4.8-8.55 1.15-3.35 1.725-7.1 1.725-11.25v-64.95h20.175v64.95c0 6.45-1.05 12.425-3.15 17.925-2.05 5.45-5.025 10.175-8.925 14.175-3.85 3.95-8.55 7.05-14.1 9.3-5.55 2.2-11.8 3.3-18.75 3.3-7 0-13.275-1.1-18.825-3.3-5.55-2.25-10.275-5.35-14.175-9.3-3.85-4-6.825-8.725-8.925-14.175-2.05-5.5-3.075-11.475-3.075-17.925v-64.95h20.175v64.875c0 4.15.55 7.9 1.65 11.25 1.15 3.35 2.775 6.225 4.875 8.625 2.15 2.35 4.75 4.175 7.8 5.475 3.1 1.3 6.6 1.95 10.5 1.95Zm108.253.525c3.75 0 6.9-.45 9.45-1.35 2.55-.9 4.575-2.1 6.075-3.6 1.55-1.5 2.65-3.25 3.3-5.25.7-2 1.05-4.125 1.05-6.375 0-2.35-.375-4.45-1.125-6.3a11.56 11.56 0 0 0-3.525-4.8c-1.6-1.35-3.675-2.375-6.225-3.075-2.5-.7-5.525-1.05-9.075-1.05h-20.325v31.8h20.4Zm-20.4-77.1v31.35h16.05c6.9 0 12.1-1.25 15.6-3.75 3.55-2.5 5.325-6.475 5.325-11.925 0-5.65-1.6-9.675-4.8-12.075-3.2-2.4-8.2-3.6-15-3.6h-17.175Zm17.175-15.6c7.1 0 13.175.675 18.225 2.025 5.05 1.35 9.175 3.275 12.375 5.775 3.25 2.5 5.625 5.525 7.125 9.075 1.5 3.55 2.25 7.55 2.25 12 0 2.55-.375 5-1.125 7.35-.75 2.3-1.925 4.475-3.525 6.525-1.55 2-3.55 3.825-6 5.475-2.4 1.65-5.275 3.05-8.625 4.2 14.9 3.35 22.35 11.4 22.35 24.15 0 4.6-.875 8.85-2.625 12.75-1.75 3.9-4.3 7.275-7.65 10.125-3.35 2.8-7.475 5-12.375 6.6-4.9 1.6-10.5 2.4-16.8 2.4h-40.95V310.55h37.35Zm81.631 16.05v30.075h37.95V372.2h-37.95v30.675h48.15V419h-68.4V310.55h68.4v16.05h-48.15Zm138.158 66.825c1.1 0 2.08.425 2.93 1.275l7.95 8.625c-4.4 5.45-9.83 9.625-16.28 12.525-6.4 2.9-14.1 4.35-23.1 4.35-8.05 0-15.3-1.375-21.75-4.125-6.4-2.75-11.87-6.575-16.42-11.475-4.55-4.9-8.053-10.75-10.503-17.55-2.4-6.8-3.6-14.225-3.6-22.275 0-8.15 1.3-15.6 3.9-22.35 2.6-6.8 6.253-12.65 10.953-17.55 4.75-4.9 10.4-8.7 16.95-11.4 6.55-2.75 13.8-4.125 21.75-4.125 7.9 0 14.9 1.3 21 3.9 6.15 2.6 11.37 6 15.67 10.2l-6.75 9.375c-.4.6-.92 1.125-1.57 1.575-.6.45-1.45.675-2.55.675-.75 0-1.53-.2-2.33-.6-.8-.45-1.67-.975-2.62-1.575a66.28 66.28 0 0 0-3.3-2.1c-1.25-.75-2.7-1.425-4.35-2.025-1.65-.65-3.58-1.175-5.78-1.575-2.15-.45-4.65-.675-7.5-.675-4.85 0-9.3.875-13.35 2.625-4 1.7-7.45 4.2-10.35 7.5-2.9 3.25-5.15 7.25-6.75 12-1.6 4.7-2.4 10.075-2.4 16.125 0 6.1.85 11.525 2.55 16.275 1.75 4.75 4.1 8.75 7.05 12a30.39 30.39 0 0 0 10.43 7.5c4 1.7 8.3 2.55 12.9 2.55 2.75 0 5.22-.15 7.42-.45 2.25-.3 4.3-.775 6.15-1.425 1.9-.65 3.68-1.475 5.33-2.475 1.7-1.05 3.37-2.325 5.02-3.825.5-.45 1.03-.8 1.58-1.05.55-.3 1.12-.45 1.72-.45Zm68.35 9.3c3.9 0 7.37-.65 10.42-1.95 3.1-1.3 5.7-3.125 7.8-5.475 2.1-2.35 3.7-5.2 4.8-8.55 1.15-3.35 1.73-7.1 1.73-11.25v-64.95h20.17v64.95c0 6.45-1.05 12.425-3.15 17.925-2.05 5.45-5.02 10.175-8.92 14.175-3.85 3.95-8.55 7.05-14.1 9.3-5.55 2.2-11.8 3.3-18.75 3.3-7 0-13.28-1.1-18.83-3.3-5.55-2.25-10.27-5.35-14.17-9.3-3.85-4-6.83-8.725-8.93-14.175-2.05-5.5-3.07-11.475-3.07-17.925v-64.95h20.17v64.875c0 4.15.55 7.9 1.65 11.25 1.15 3.35 2.78 6.225 4.88 8.625 2.15 2.35 4.75 4.175 7.8 5.475 3.1 1.3 6.6 1.95 10.5 1.95Zm108.25.525c3.75 0 6.9-.45 9.45-1.35 2.55-.9 4.58-2.1 6.08-3.6 1.55-1.5 2.65-3.25 3.3-5.25.7-2 1.05-4.125 1.05-6.375 0-2.35-.38-4.45-1.13-6.3-.75-1.9-1.92-3.5-3.52-4.8-1.6-1.35-3.68-2.375-6.23-3.075-2.5-.7-5.52-1.05-9.07-1.05h-20.33v31.8h20.4Zm-20.4-77.1v31.35h16.05c6.9 0 12.1-1.25 15.6-3.75 3.55-2.5 5.33-6.475 5.33-11.925 0-5.65-1.6-9.675-4.8-12.075-3.2-2.4-8.2-3.6-15-3.6h-17.18Zm17.18-15.6c7.1 0 13.17.675 18.22 2.025 5.05 1.35 9.18 3.275 12.38 5.775 3.25 2.5 5.62 5.525 7.12 9.075 1.5 3.55 2.25 7.55 2.25 12 0 2.55-.37 5-1.12 7.35-.75 2.3-1.93 4.475-3.53 6.525-1.55 2-3.55 3.825-6 5.475-2.4 1.65-5.27 3.05-8.62 4.2 14.9 3.35 22.35 11.4 22.35 24.15 0 4.6-.88 8.85-2.63 12.75-1.75 3.9-4.3 7.275-7.65 10.125-3.35 2.8-7.47 5-12.37 6.6-4.9 1.6-10.5 2.4-16.8 2.4h-40.95V310.55h37.35Zm81.63 16.05v30.075h37.95V372.2h-37.95v30.675h48.15V419h-68.4V310.55h68.4v16.05h-48.15Zm162.33 38.175c0 7.95-1.33 15.25-3.98 21.9-2.65 6.65-6.37 12.375-11.17 17.175-4.8 4.8-10.58 8.525-17.33 11.175-6.75 2.65-14.25 3.975-22.5 3.975h-41.32V310.55h41.32c8.25 0 15.75 1.35 22.5 4.05 6.75 2.65 12.53 6.375 17.33 11.175 4.8 4.75 8.52 10.45 11.17 17.1 2.65 6.65 3.98 13.95 3.98 21.9Zm-20.7 0c0-5.95-.8-11.275-2.4-15.975-1.55-4.75-3.83-8.75-6.83-12-2.95-3.3-6.55-5.825-10.8-7.575-4.2-1.75-8.95-2.625-14.25-2.625h-21.07v76.35h21.07c5.3 0 10.05-.875 14.25-2.625 4.25-1.75 7.85-4.25 10.8-7.5 3-3.3 5.28-7.3 6.83-12 1.6-4.75 2.4-10.1 2.4-16.05Z"/>
  <path fill="#A61EE8" d="M701.836 443.93V509h-10.665v-42.03c0-1.68.09-3.495.27-5.445l-19.665 36.945c-.93 1.77-2.355 2.655-4.275 2.655h-1.71c-1.92 0-3.345-.885-4.275-2.655l-19.89-37.08c.09.99.165 1.965.225 2.925.06.96.09 1.845.09 2.655V509h-10.665v-65.07h9.135c.54 0 1.005.015 1.395.045.39.03.735.105 1.035.225.33.12.615.315.855.585.27.27.525.63.765 1.08L663.946 482c.51.96.975 1.95 1.395 2.97.45 1.02.885 2.07 1.305 3.15.42-1.11.855-2.175 1.305-3.195.45-1.05.93-2.055 1.44-3.015l19.215-36.045c.24-.45.495-.81.765-1.08s.555-.465.855-.585c.33-.12.69-.195 1.08-.225.39-.03.855-.045 1.395-.045h9.135Zm36.011 45.36c-3.21.15-5.91.435-8.1.855-2.19.39-3.945.9-5.265 1.53-1.32.63-2.265 1.365-2.835 2.205a4.79 4.79 0 0 0-.855 2.745c0 1.95.57 3.345 1.71 4.185 1.17.84 2.685 1.26 4.545 1.26 2.28 0 4.245-.405 5.895-1.215 1.68-.84 3.315-2.1 4.905-3.78v-7.785Zm-25.47-20.025c5.31-4.86 11.7-7.29 19.17-7.29 2.7 0 5.115.45 7.245 1.35 2.13.87 3.93 2.1 5.4 3.69 1.47 1.56 2.58 3.435 3.33 5.625.78 2.19 1.17 4.59 1.17 7.2V509h-5.04c-1.05 0-1.86-.15-2.43-.45-.57-.33-1.02-.975-1.35-1.935l-.99-3.33a43.841 43.841 0 0 1-3.42 2.79c-1.11.78-2.265 1.44-3.465 1.98-1.2.54-2.49.945-3.87 1.215-1.35.3-2.85.45-4.5.45-1.95 0-3.75-.255-5.4-.765-1.65-.54-3.075-1.335-4.275-2.385-1.2-1.05-2.13-2.355-2.79-3.915-.66-1.56-.99-3.375-.99-5.445 0-1.17.195-2.325.585-3.465.39-1.17 1.02-2.28 1.89-3.33.9-1.05 2.055-2.04 3.465-2.97 1.41-.93 3.135-1.74 5.175-2.43 2.07-.69 4.47-1.245 7.2-1.665 2.73-.45 5.85-.72 9.36-.81v-2.7c0-3.09-.66-5.37-1.98-6.84-1.32-1.5-3.225-2.25-5.715-2.25-1.8 0-3.3.21-4.5.63-1.17.42-2.205.9-3.105 1.44-.9.51-1.725.975-2.475 1.395-.72.42-1.53.63-2.43.63-.78 0-1.44-.195-1.98-.585-.54-.42-.975-.9-1.305-1.44l-1.98-3.555Zm61.558 40.455c-4.02 0-7.11-1.125-9.27-3.375-2.13-2.28-3.195-5.415-3.195-9.405v-25.785h-4.725c-.6 0-1.11-.195-1.53-.585-.42-.39-.63-.975-.63-1.755v-4.41l7.425-1.215 2.34-12.6c.15-.6.435-1.065.855-1.395.42-.33.96-.495 1.62-.495h5.76v14.535h12.33v7.92h-12.33v25.02c0 1.44.345 2.565 1.035 3.375.72.81 1.695 1.215 2.925 1.215.69 0 1.26-.075 1.71-.225.48-.18.885-.36 1.215-.54.36-.18.675-.345.945-.495.27-.18.54-.27.81-.27.33 0 .6.09.81.27.21.15.435.39.675.72l3.33 5.4c-1.62 1.35-3.48 2.37-5.58 3.06a20.77 20.77 0 0 1-6.525 1.035Zm29.211-41.94c1.8-1.68 3.78-3.045 5.94-4.095 2.16-1.05 4.695-1.575 7.605-1.575 2.52 0 4.755.435 6.705 1.305 1.95.84 3.57 2.04 4.86 3.6 1.32 1.53 2.31 3.375 2.97 5.535.69 2.13 1.035 4.485 1.035 7.065V509h-11.115v-29.385c0-2.82-.645-4.995-1.935-6.525-1.29-1.56-3.255-2.34-5.895-2.34-1.92 0-3.72.435-5.4 1.305-1.68.87-3.27 2.055-4.77 3.555V509h-11.115v-66.87h11.115v25.65Zm82.001-5.67c3.42 0 6.525.555 9.315 1.665 2.82 1.11 5.22 2.685 7.2 4.725 2.01 2.04 3.555 4.53 4.635 7.47 1.08 2.94 1.62 6.225 1.62 9.855 0 3.66-.54 6.96-1.62 9.9-1.08 2.94-2.625 5.445-4.635 7.515-1.98 2.07-4.38 3.66-7.2 4.77-2.79 1.11-5.895 1.665-9.315 1.665-3.45 0-6.585-.555-9.405-1.665-2.82-1.11-5.235-2.7-7.245-4.77-1.98-2.07-3.525-4.575-4.635-7.515-1.08-2.94-1.62-6.24-1.62-9.9 0-3.63.54-6.915 1.62-9.855 1.11-2.94 2.655-5.43 4.635-7.47 2.01-2.04 4.425-3.615 7.245-4.725 2.82-1.11 5.955-1.665 9.405-1.665Zm0 39.015c3.84 0 6.675-1.29 8.505-3.87 1.86-2.58 2.79-6.36 2.79-11.34 0-4.98-.93-8.775-2.79-11.385-1.83-2.61-4.665-3.915-8.505-3.915-3.9 0-6.795 1.32-8.685 3.96-1.86 2.61-2.79 6.39-2.79 11.34s.93 8.73 2.79 11.34c1.89 2.58 4.785 3.87 8.685 3.87Zm41.644-32.625c.93-.93 1.905-1.785 2.925-2.565a17.965 17.965 0 0 1 3.285-2.025 17.198 17.198 0 0 1 3.735-1.305c1.32-.33 2.76-.495 4.32-.495 2.52 0 4.755.435 6.705 1.305 1.95.84 3.57 2.04 4.86 3.6 1.32 1.53 2.31 3.375 2.97 5.535.69 2.13 1.035 4.485 1.035 7.065V509h-11.115v-29.385c0-2.82-.645-4.995-1.935-6.525-1.29-1.56-3.255-2.34-5.895-2.34-1.92 0-3.72.435-5.4 1.305-1.68.87-3.27 2.055-4.77 3.555V509h-11.115v-46.17h6.795c1.44 0 2.385.675 2.835 2.025l.765 3.645Zm77.679 41.22c-4.02 0-7.108-1.125-9.268-3.375-2.13-2.28-3.195-5.415-3.195-9.405v-25.785h-4.725c-.6 0-1.11-.195-1.53-.585-.42-.39-.63-.975-.63-1.755v-4.41l7.425-1.215 2.34-12.6c.15-.6.435-1.065.855-1.395.42-.33.96-.495 1.62-.495h5.758v14.535h12.33v7.92h-12.33v25.02c0 1.44.35 2.565 1.04 3.375.72.81 1.69 1.215 2.92 1.215.69 0 1.26-.075 1.71-.225.48-.18.89-.36 1.22-.54.36-.18.67-.345.94-.495.27-.18.54-.27.81-.27.33 0 .6.09.81.27.21.15.44.39.68.72l3.33 5.4c-1.62 1.35-3.48 2.37-5.58 3.06a20.8 20.8 0 0 1-6.53 1.035Zm29.21-41.94c1.8-1.68 3.78-3.045 5.94-4.095 2.16-1.05 4.7-1.575 7.61-1.575 2.52 0 4.75.435 6.7 1.305 1.95.84 3.57 2.04 4.86 3.6 1.32 1.53 2.31 3.375 2.97 5.535.69 2.13 1.04 4.485 1.04 7.065V509h-11.12v-29.385c0-2.82-.64-4.995-1.93-6.525-1.29-1.56-3.26-2.34-5.9-2.34-1.92 0-3.72.435-5.4 1.305-1.68.87-3.27 2.055-4.77 3.555V509h-11.11v-66.87h11.11v25.65Zm69.43 12.825c0-1.44-.21-2.79-.63-4.05-.39-1.29-.99-2.415-1.8-3.375s-1.84-1.71-3.1-2.25c-1.23-.57-2.67-.855-4.32-.855-3.21 0-5.75.915-7.61 2.745-1.83 1.83-3 4.425-3.51 7.785h20.97Zm-21.19 6.705c.18 2.37.6 4.425 1.26 6.165.66 1.71 1.53 3.135 2.61 4.275 1.08 1.11 2.35 1.95 3.82 2.52 1.5.54 3.15.81 4.95.81 1.8 0 3.35-.21 4.64-.63 1.32-.42 2.46-.885 3.42-1.395.99-.51 1.84-.975 2.56-1.395.75-.42 1.47-.63 2.16-.63.93 0 1.62.345 2.07 1.035l3.2 4.05a19.02 19.02 0 0 1-4.14 3.645 24.65 24.65 0 0 1-4.82 2.34c-1.65.57-3.34.975-5.08 1.215-1.71.24-3.38.36-5 .36-3.21 0-6.19-.525-8.95-1.575-2.76-1.08-5.16-2.655-7.2-4.725-2.04-2.1-3.65-4.68-4.82-7.74-1.17-3.09-1.75-6.66-1.75-10.71 0-3.15.51-6.105 1.53-8.865 1.02-2.79 2.47-5.205 4.36-7.245 1.92-2.07 4.25-3.705 6.98-4.905 2.76-1.2 5.86-1.8 9.31-1.8 2.91 0 5.6.465 8.06 1.395 2.46.93 4.57 2.295 6.34 4.095 1.77 1.77 3.15 3.96 4.14 6.57 1.02 2.58 1.53 5.535 1.53 8.865 0 1.68-.18 2.82-.54 3.42-.36.57-1.05.855-2.07.855h-28.57Zm72.52 9.72c1.26 1.53 2.63 2.61 4.1 3.24 1.5.63 3.07.945 4.72.945 1.71 0 3.24-.3 4.59-.9 1.38-.63 2.55-1.59 3.51-2.88.96-1.32 1.7-2.985 2.21-4.995.51-2.04.76-4.47.76-7.29 0-5.07-.84-8.73-2.52-10.98-1.68-2.28-4.09-3.42-7.24-3.42-2.13 0-3.99.495-5.58 1.485-1.59.96-3.11 2.325-4.55 4.095v20.7Zm0-28.53c1.86-1.95 3.92-3.495 6.17-4.635 2.28-1.17 4.87-1.755 7.78-1.755 2.67 0 5.07.525 7.2 1.575 2.16 1.05 3.99 2.565 5.49 4.545 1.53 1.95 2.7 4.32 3.51 7.11.81 2.79 1.22 5.925 1.22 9.405 0 3.75-.47 7.155-1.4 10.215-.93 3.06-2.26 5.685-4 7.875a18.006 18.006 0 0 1-6.21 5.04c-2.43 1.2-5.13 1.8-8.1 1.8-1.44 0-2.75-.15-3.92-.45-1.17-.27-2.25-.66-3.24-1.17-.99-.51-1.9-1.125-2.74-1.845-.81-.75-1.59-1.575-2.34-2.475l-.5 3.105c-.18.78-.49 1.335-.94 1.665-.42.33-1.01.495-1.76.495h-7.33v-66.87h11.11v26.37Zm50.44 2.34c1.44-2.76 3.15-4.92 5.13-6.48 1.98-1.59 4.32-2.385 7.02-2.385 2.13 0 3.84.465 5.13 1.395l-.72 8.325c-.15.54-.38.93-.68 1.17-.27.21-.64.315-1.12.315-.45 0-1.13-.075-2.03-.225-.87-.15-1.72-.225-2.56-.225-1.23 0-2.33.18-3.29.54-.96.36-1.83.885-2.61 1.575-.75.66-1.42 1.47-2.02 2.43-.57.96-1.11 2.055-1.62 3.285V509h-11.12v-46.17h6.53c1.14 0 1.93.21 2.38.63.45.39.75 1.11.9 2.16l.68 5.22Zm42.2-8.73c3.42 0 6.53.555 9.32 1.665 2.82 1.11 5.22 2.685 7.2 4.725 2.01 2.04 3.55 4.53 4.63 7.47 1.08 2.94 1.62 6.225 1.62 9.855 0 3.66-.54 6.96-1.62 9.9-1.08 2.94-2.62 5.445-4.63 7.515-1.98 2.07-4.38 3.66-7.2 4.77-2.79 1.11-5.9 1.665-9.32 1.665-3.45 0-6.58-.555-9.4-1.665-2.82-1.11-5.24-2.7-7.25-4.77-1.98-2.07-3.52-4.575-4.63-7.515-1.08-2.94-1.62-6.24-1.62-9.9 0-3.63.54-6.915 1.62-9.855 1.11-2.94 2.65-5.43 4.63-7.47 2.01-2.04 4.43-3.615 7.25-4.725 2.82-1.11 5.95-1.665 9.4-1.665Zm0 39.015c3.84 0 6.68-1.29 8.51-3.87 1.86-2.58 2.79-6.36 2.79-11.34 0-4.98-.93-8.775-2.79-11.385-1.83-2.61-4.67-3.915-8.51-3.915-3.9 0-6.79 1.32-8.68 3.96-1.86 2.61-2.79 6.39-2.79 11.34s.93 8.73 2.79 11.34c1.89 2.58 4.78 3.87 8.68 3.87Zm96.38-38.295L1328.79 509h-8.91c-1.02 0-1.72-.66-2.11-1.98l-8.28-26.685c-.27-.9-.53-1.785-.77-2.655-.21-.9-.39-1.8-.54-2.7-.18.9-.39 1.815-.63 2.745-.21.9-.45 1.8-.72 2.7l-8.41 26.595c-.36 1.32-1.16 1.98-2.39 1.98h-8.55l-14.62-46.17h8.86c.81 0 1.5.195 2.07.585.57.39.95.885 1.13 1.485l6.61 24.66c.33 1.35.62 2.67.86 3.96.27 1.29.49 2.58.67 3.87.33-1.29.68-2.58 1.04-3.87.39-1.29.79-2.61 1.21-3.96l7.65-24.75c.18-.6.53-1.095 1.04-1.485.54-.39 1.18-.585 1.93-.585h4.91c.78 0 1.44.195 1.98.585.57.39.94.885 1.12 1.485l7.43 24.75c.39 1.35.75 2.685 1.08 4.005.36 1.29.7 2.58 1.03 3.87.39-2.55.95-5.175 1.67-7.875l6.79-24.66c.21-.6.59-1.095 1.13-1.485.54-.39 1.18-.585 1.93-.585h8.46Zm33.97 9c-.3.48-.62.825-.95 1.035-.33.18-.75.27-1.26.27-.54 0-1.12-.15-1.75-.45-.6-.3-1.31-.63-2.12-.99-.81-.39-1.74-.735-2.79-1.035-1.02-.3-2.23-.45-3.64-.45-2.19 0-3.92.465-5.18 1.395-1.23.93-1.84 2.145-1.84 3.645 0 .99.31 1.83.94 2.52.66.66 1.52 1.245 2.57 1.755 1.08.51 2.29.975 3.64 1.395 1.35.39 2.72.825 4.1 1.305 1.41.48 2.79 1.035 4.14 1.665 1.35.6 2.55 1.38 3.6 2.34 1.08.93 1.93 2.055 2.56 3.375.66 1.32.99 2.91.99 4.77 0 2.22-.4 4.275-1.21 6.165-.78 1.86-1.95 3.48-3.51 4.86-1.56 1.35-3.5 2.415-5.81 3.195-2.28.75-4.92 1.125-7.92 1.125-1.59 0-3.15-.15-4.68-.45-1.5-.27-2.95-.66-4.36-1.17-1.38-.51-2.67-1.11-3.87-1.8-1.17-.69-2.21-1.44-3.11-2.25l2.57-4.23c.33-.51.72-.9 1.17-1.17.45-.27 1.02-.405 1.71-.405s1.33.195 1.93.585c.63.39 1.35.81 2.16 1.26.81.45 1.76.87 2.84 1.26 1.11.39 2.5.585 4.18.585 1.32 0 2.45-.15 3.38-.45.96-.33 1.74-.75 2.34-1.26.63-.51 1.08-1.095 1.35-1.755.3-.69.45-1.395.45-2.115 0-1.08-.33-1.965-.99-2.655-.63-.69-1.49-1.29-2.57-1.8-1.05-.51-2.26-.96-3.64-1.35-1.35-.42-2.75-.87-4.19-1.35a44.88 44.88 0 0 1-4.18-1.665 15.345 15.345 0 0 1-3.65-2.475c-1.05-.99-1.9-2.205-2.56-3.645-.63-1.44-.95-3.18-.95-5.22 0-1.89.38-3.69 1.13-5.4.75-1.71 1.84-3.195 3.28-4.455 1.47-1.29 3.29-2.31 5.45-3.06 2.19-.78 4.71-1.17 7.56-1.17 3.18 0 6.07.525 8.68 1.575 2.61 1.05 4.79 2.43 6.53 4.14l-2.52 4.005Zm41.12 8.775c0-1.44-.21-2.79-.63-4.05-.39-1.29-.99-2.415-1.8-3.375s-1.84-1.71-3.1-2.25c-1.23-.57-2.67-.855-4.32-.855-3.21 0-5.75.915-7.61 2.745-1.83 1.83-3 4.425-3.51 7.785h20.97Zm-21.19 6.705c.18 2.37.6 4.425 1.26 6.165.66 1.71 1.53 3.135 2.61 4.275 1.08 1.11 2.35 1.95 3.82 2.52 1.5.54 3.15.81 4.95.81 1.8 0 3.35-.21 4.64-.63 1.32-.42 2.46-.885 3.42-1.395.99-.51 1.84-.975 2.56-1.395.75-.42 1.47-.63 2.16-.63.93 0 1.62.345 2.07 1.035l3.2 4.05a19.02 19.02 0 0 1-4.14 3.645 24.65 24.65 0 0 1-4.82 2.34c-1.65.57-3.34.975-5.08 1.215-1.71.24-3.38.36-5 .36-3.21 0-6.19-.525-8.95-1.575-2.76-1.08-5.16-2.655-7.2-4.725-2.04-2.1-3.65-4.68-4.82-7.74-1.17-3.09-1.75-6.66-1.75-10.71 0-3.15.51-6.105 1.53-8.865 1.02-2.79 2.47-5.205 4.36-7.245 1.92-2.07 4.25-3.705 6.98-4.905 2.76-1.2 5.86-1.8 9.31-1.8 2.91 0 5.6.465 8.06 1.395 2.46.93 4.57 2.295 6.34 4.095 1.77 1.77 3.15 3.96 4.14 6.57 1.02 2.58 1.53 5.535 1.53 8.865 0 1.68-.18 2.82-.54 3.42-.36.57-1.05.855-2.07.855h-28.57Zm50.01-16.47c1.44-2.76 3.15-4.92 5.13-6.48 1.98-1.59 4.32-2.385 7.02-2.385 2.13 0 3.84.465 5.13 1.395l-.72 8.325c-.15.54-.38.93-.68 1.17-.27.21-.64.315-1.12.315-.45 0-1.13-.075-2.03-.225-.87-.15-1.72-.225-2.56-.225-1.23 0-2.33.18-3.29.54-.96.36-1.83.885-2.61 1.575-.75.66-1.42 1.47-2.02 2.43-.57.96-1.11 2.055-1.62 3.285V509h-11.12v-46.17h6.53c1.14 0 1.93.21 2.38.63.45.39.75 1.11.9 2.16l.68 5.22Z"/>
  <path stroke="#560BFF" stroke-width="29.231" d="M579.457 109.018h106.86"/>
  <path stroke="#560BFF" stroke-width="26.043" d="M560.177 14H706"/>
  <path stroke="#560BFF" stroke-width="28.915" d="M564.899 235.014H706"/>
  <path stroke="#560BFF" stroke-width="32.982" d="M686.317 2.49v232.524"/>
  <path fill="#2E0F52" d="M130.004 435.556H1.96v127.276h128.044V435.556Z"/>
  <path fill="#D31DDE" d="M327.184 504.82H199.14l-69.943 58.689h128.044l69.943-58.689Zm127.281.677H326.421l-68.329 57.335h128.044l68.329-57.335Z"/>
  <path fill="#DCDCDC" d="M198.333 250.945H70.289L1.96 308.28h128.044l68.329-57.335Z"/>
  <path fill="#D31DDE" d="M505.519 463.058H377.475L421.639 426h128.044l-44.164 37.058Z"/>
  <path fill="#939393" fill-opacity=".72" d="M375.515 80.793H247.471l43.191-36.242h128.044l-43.191 36.242Z"/>
  <path fill="#D31DDE" d="M503.559 208.837H375.515l43.191-36.242H546.75l-43.191 36.242Z"/>
  <path fill="#560BFF" d="M455.228 378.665H327.184v127.276h128.044V378.665Z"/>
  <path fill="#560BFF" d="M548.404 299.036H420.36v127.276h128.044V299.036Zm-223.987 78.411H196.373v127.276h128.044V377.447ZM548.404 45.32H420.36v127.275h128.044V45.319Z"/>
  <path fill="#D31DDE" d="M456.663 377H327.369l-69.764 58.539h129.294L456.663 377Z"/>
  <path fill="#DCDCDC" d="M505.213 335.278H377.169l43.191-36.242h128.044l-43.191 36.242Z"/>
  <path fill="#D31DDE" d="M506.868 80.793H375.515l43.191-36.242h131.353l-43.191 36.242Zm-259.397 0H119.427l43.191-36.242h128.044l-43.191 36.242Zm206.95 297.097H326.377l51.098-42.876h128.044l-51.098 42.876Z"/>
  <path fill="#560BFF" d="M454.413 250.171H326.369v127.276h128.044V250.171Zm0-127.554H326.369v127.276h128.044V122.617Z"/>
  <path fill="#560BFF" d="M505.528 208.837H377.484v127.276h128.044V208.837ZM196.373 251.72H68.329v127.276h128.044V251.72Z"/>
  <path fill="#D31DDE" d="M326.377 250.945H198.333l-68.329 57.335h128.044l68.329-57.335Z"/>
  <path fill="#D31DDE" d="M451.734 250.171H323.69l-68.329 57.335h128.044l68.329-57.335ZM196.373 378.583H68.329L0 435.918h128.045l68.329-57.335ZM199.328 122h-127.7L.855 181.387h127.699L199.328 122Z"/>
  <path fill="#DCDCDC" d="M451.734 124.052H323.69l-68.329 57.335h128.044l68.329-57.335Z"/>
  <path fill="#A61EE8" d="M70.296 378.215V250.171L1.96 307.512v128.044l68.337-57.341Zm127.766 127.766V377.937l-68.336 57.341v128.044l68.336-57.341Zm0-253.891V124.046l-68.336 57.341v128.044l68.336-57.341Zm128.366 125.847V249.893l-68.337 57.341v128.044l68.337-57.341Z"/>
  <path fill="#A61EE8" d="M196.543 251.413V123.369l51.106-42.884V208.53l-51.106 42.884Z"/>
  <path fill="#2E0F52" d="M258.048 308.28H130.004v127.276h128.044V308.28Z"/>
  <path fill="#560BFF" d="M324.417 125.727H196.373v127.276h128.044V125.727Z"/>
  <path fill="#560BFF" d="M375.515 79.694H247.471V206.97h128.044V79.694Z"/>
  <path fill="#2E0F52" d="M327.185 122.371H199.141l-68.33 57.335h128.044l68.33-57.335Z"/>
  <path fill="#D31DDE" d="M455.228 122.371H327.184L257.314 181h128.044l69.87-58.629Z"/>
  <path fill="#2E0F52" d="M386.092 435.556H258.048v127.276h128.044V435.556ZM130.004 181.004H1.96V308.28h128.044V181.004Z"/>
  <path fill="#191A2A" d="M386.092 181.004H258.048V308.28h128.044V181.004Z"/>
  <path fill="#2E0F52" d="M386.092 181.004H258.048V308.28h128.044V181.004Zm68.336 198.946V247.754l-68.336 57.342v132.195l68.336-57.341Z"/>
  <path fill="#2E0F52" d="M454.421 251.72V123.676l51.107-42.883v128.044l-51.107 42.883Zm-.008 254.221V377.897l51.106-42.883v128.044l-51.106 42.883Zm51.115-170.927V206.97l42.876-35.978v128.044l-42.876 35.978Zm-51.107-211.345h-130.52l51.098-42.876h130.52l-51.098 42.876Zm-258.048 0H68.329l51.098-42.876h128.044l-51.098 42.876Zm179.142-42.876H247.471l43.191-36.242h128.044l-43.191 36.242Z"/>
  <defs>
    <linearGradient id="a" x1="608" x2="1544.43" y1="462.786" y2="337.393" gradientUnits="userSpaceOnUse">
      <stop offset=".203" stop-color="#560BFF"/>
      <stop offset=".642" stop-color="#A61EE8"/>
      <stop offset=".871" stop-color="#D31DDE"/>
    </linearGradient>
  </defs>
</svg>
