<svg xmlns="http://www.w3.org/2000/svg" width="635" height="542" fill="none" viewBox="0 0 635 542">
  <path fill="#2E0F52" d="M214.125 308.499H113.366v100.155h100.759V308.499Z"/>
  <path fill="#D31DDE" d="M369.289 363.004H268.53l-55.04 46.183h100.76l55.039-46.183Zm100.159.533h-100.76l-53.769 45.117h100.76l53.769-45.117Z"/>
  <path fill="#DCDCDC" d="M267.895 163.227h-100.76l-53.769 45.117h100.76l53.769-45.117Z"/>
  <path fill="#D31DDE" d="M509.431 330.107H408.904l34.648-29.073H544.08l-34.649 29.073Z"/>
  <path fill="#939393" fill-opacity=".72" d="M407.321 29.332H306.562L340.549.812h100.76l-33.988 28.52Z"/>
  <path fill="#D31DDE" d="M508.081 130.091h-100.76l33.988-28.519h100.759l-33.987 28.519Z"/>
  <path fill="#560BFF" d="M470.049 263.731h-100.76v100.155h100.76V263.731Z"/>
  <path fill="#560BFF" d="M543.37 201.07H442.611v100.155H543.37V201.07Zm-176.258 61.703h-100.76v100.155h100.76V262.773ZM543.37 1.417H442.611v100.155H543.37V1.417Z"/>
  <path fill="#D31DDE" d="M469.083 263.192H368.174l-53.751 45.102h100.908l53.752-45.102Z"/>
  <path fill="#DCDCDC" d="M509.383 229.589h-100.76l33.988-28.519H543.37l-33.987 28.519Z"/>
  <path fill="#D31DDE" d="M510.086 29.233H407.439L441.191.912h102.647l-33.752 28.32Zm-203.524.099h-100.76L239.79.812h100.759l-33.987 28.52Zm162.852 233.789h-100.76L409.318 229h100.76l-40.664 34.121Z"/>
  <path fill="#560BFF" d="M469.407 162.618h-100.76v100.155h100.76V162.618Zm0-100.374h-100.76v100.155h100.76V62.244Z"/>
  <path fill="#560BFF" d="M510 130H409v99h101v-99Zm-243.648 33.837H165.593v100.155h100.759V163.837Z"/>
  <path fill="#D31DDE" d="M368.654 163.227H267.895l-53.769 45.117h100.759l53.769-45.117Z"/>
  <path fill="#D31DDE" d="M469.883 162.161H367.084l-54.858 46.031h102.799l54.858-46.031ZM266.352 263.666H165.593l-53.769 45.118h100.759l53.769-45.118Zm0-200.293H165.593l-53.769 45.118h100.759l53.769-45.118Z"/>
  <path fill="#DCDCDC" d="M467.299 63.373H366.54l-53.769 45.118H413.53l53.769-45.118Z"/>
  <path fill="#A61EE8" d="M167.141 263.377V162.618l-53.775 45.122V308.5l53.775-45.123Zm100.541 100.541v-100.76l-53.775 45.123V409.04l53.775-45.122Zm0-199.79V63.368l-53.775 45.123V209.25l53.775-45.122Zm101.012 99.03V162.399l-53.775 45.122v100.76l53.775-45.123Z"/>
  <path fill="#A61EE8" d="M266.486 163.595V62.835l40.216-33.745v100.759l-40.216 33.746Z"/>
  <path fill="#2E0F52" d="M314.885 208.344h-100.76v100.155h100.76V208.344Z"/>
  <path fill="#560BFF" d="M367.112 64.69h-100.76v100.156h100.76V64.691Z"/>
  <path fill="#560BFF" d="M407.321 28.467H306.562v100.155h100.759V28.467Z"/>
  <path fill="#2E0F52" d="M368.157 63H267.398l-52.637 44.168H315.52L368.157 63Z"/>
  <path fill="#2E0F52" d="M368.157 63H267.398l-52.637 44.168H315.52L368.157 63Z"/>
  <path fill="#D31DDE" d="M470.049 62.05h-100.76l-53.769 45.118h100.76l53.769-45.118Z"/>
  <path fill="#2E0F52" d="M416 308H315v101h101V308ZM214.125 108.189H113.366v100.155h100.759V108.189Z"/>
  <path fill="#191A2A" d="M415.644 108.189H314.885v100.155h100.759V108.189Z"/>
  <path fill="#2E0F52" d="M416 107H315v101h101V107Z"/>
  <path fill="#2E0F52" d="M469.379 263.411V162.802l-53.694 45.055v100.609l53.694-45.055Zm.035-99.574V63.077l40.216-33.745V130.09l-40.216 33.746Zm-.007 200.049V263.127l40.216-33.746v100.76l-40.216 33.745Zm40.223-134.505V128.622l33.74-28.311V201.07l-33.74 28.311ZM470.691 62H368.734l38.932-32.668h101.957L470.691 62Zm-204.339 1.072H165.593l40.209-33.74h100.76l-40.21 33.74Zm140.969-33.74H306.562L340.549.812h100.76l-33.988 28.52Z"/>
  <path fill="url(#a)" d="M76.782 520c-5.133 0-9.866-.867-14.2-2.6-4.266-1.8-8-4.3-11.2-7.5-3.133-3.267-5.566-7.1-7.3-11.5-1.733-4.467-2.6-9.333-2.6-14.6 0-5.133.9-9.867 2.7-14.2 1.8-4.4 4.334-8.2 7.6-11.4 3.267-3.267 7.1-5.8 11.5-7.6 4.4-1.8 9.167-2.7 14.3-2.7 3.334 0 6.6.467 9.8 1.4 3.267.867 6.234 2.167 8.9 3.9 2.734 1.733 5.067 3.8 7 6.2l-9.4 10.4c-1.6-1.6-3.266-2.967-5-4.1a18.645 18.645 0 0 0-5.4-2.7c-1.866-.667-3.866-1-6-1-2.866 0-5.566.533-8.1 1.6a19.973 19.973 0 0 0-6.5 4.5c-1.866 1.867-3.366 4.167-4.5 6.9-1.066 2.667-1.6 5.633-1.6 8.9 0 3.333.534 6.367 1.6 9.1 1.067 2.667 2.567 4.967 4.5 6.9 1.934 1.867 4.234 3.333 6.9 4.4 2.734 1 5.734 1.5 9 1.5 2.134 0 4.2-.3 6.2-.9 2-.6 3.834-1.433 5.5-2.5a22.859 22.859 0 0 0 4.6-3.7l7.3 11.7c-1.6 1.8-3.766 3.433-6.5 4.9-2.666 1.467-5.666 2.633-9 3.5-3.333.8-6.7 1.2-10.1 1.2Zm54.446 0c-3.867 0-7.2-.833-10-2.5-2.734-1.733-4.867-4.167-6.4-7.3-1.467-3.2-2.2-7.033-2.2-11.5v-32.6h14.2v30.3c0 2.4.4 4.5 1.2 6.3.8 1.733 1.933 3.067 3.4 4 1.466.933 3.266 1.4 5.4 1.4 1.533 0 2.966-.233 4.3-.7 1.333-.533 2.466-1.267 3.4-2.2a10.233 10.233 0 0 0 2.2-3.3c.533-1.267.8-2.633.8-4.1v-31.7h14.2V519h-13.5l-.5-10.9 2.6-1.2c-.8 2.467-2.134 4.7-4 6.7-1.867 2-4.1 3.567-6.7 4.7-2.6 1.133-5.4 1.7-8.4 1.7Zm75.288 0c-2.333 0-4.6-.333-6.8-1s-4.2-1.567-6-2.7c-1.8-1.2-3.3-2.533-4.5-4-1.2-1.533-1.967-3.1-2.3-4.7l3.2-1.2-.7 12.4h-13.4V445h14.2v33.5l-2.7-1.1c.4-1.6 1.167-3.133 2.3-4.6 1.133-1.533 2.567-2.867 4.3-4a21.603 21.603 0 0 1 5.7-2.8c2.067-.667 4.2-1 6.4-1 4.6 0 8.7 1.2 12.3 3.6 3.6 2.333 6.433 5.567 8.5 9.7 2.133 4.133 3.2 8.867 3.2 14.2 0 5.333-1.033 10.067-3.1 14.2-2.067 4.133-4.9 7.4-8.5 9.8-3.533 2.333-7.567 3.5-12.1 3.5Zm-3.4-12.1c2.667 0 4.967-.633 6.9-1.9 2-1.333 3.567-3.133 4.7-5.4 1.133-2.333 1.7-5.033 1.7-8.1 0-3-.567-5.667-1.7-8-1.067-2.333-2.6-4.133-4.6-5.4-2-1.267-4.333-1.9-7-1.9s-5 .633-7 1.9-3.567 3.067-4.7 5.4-1.7 5-1.7 8c0 3.067.567 5.767 1.7 8.1 1.133 2.267 2.7 4.067 4.7 5.4 2 1.267 4.333 1.9 7 1.9Zm62.941 12.1c-5.733 0-10.733-1.167-15-3.5-4.266-2.333-7.6-5.533-10-9.6-2.4-4.067-3.6-8.733-3.6-14 0-4.067.667-7.8 2-11.2 1.334-3.4 3.2-6.333 5.6-8.8a24.137 24.137 0 0 1 8.5-5.8c3.334-1.4 6.934-2.1 10.8-2.1 3.6 0 6.934.667 10 2 3.067 1.267 5.7 3.1 7.9 5.5 2.267 2.333 4 5.1 5.2 8.3 1.2 3.2 1.734 6.7 1.6 10.5l-.1 4.4h-42.5l-2.3-8.7h33.1l-1.6 1.8v-2.2a9.347 9.347 0 0 0-1.8-4.9c-1-1.467-2.3-2.6-3.9-3.4-1.6-.8-3.4-1.2-5.4-1.2-2.933 0-5.433.567-7.5 1.7-2 1.133-3.533 2.8-4.6 5-1.066 2.2-1.6 4.867-1.6 8 0 3.2.667 5.967 2 8.3 1.4 2.333 3.334 4.167 5.8 5.5 2.534 1.267 5.5 1.9 8.9 1.9 2.334 0 4.467-.367 6.4-1.1 1.934-.733 4-2 6.2-3.8l6.8 9.5a30.297 30.297 0 0 1-6.4 4.4 35.823 35.823 0 0 1-7.2 2.6c-2.466.6-4.9.9-7.3.9Zm56.494 0c-5.066 0-9.6-1.2-13.6-3.6-4-2.4-7.166-5.667-9.5-9.8-2.266-4.133-3.4-8.833-3.4-14.1 0-5.2 1.134-9.867 3.4-14 2.334-4.2 5.5-7.5 9.5-9.9 4-2.4 8.534-3.6 13.6-3.6 4.734 0 9.067.867 13 2.6 3.934 1.733 7 4.133 9.2 7.2l-7.8 9.4c-.933-1.267-2.1-2.4-3.5-3.4a17.09 17.09 0 0 0-4.6-2.5c-1.6-.6-3.266-.9-5-.9-2.733 0-5.166.667-7.3 2-2.066 1.267-3.7 3.033-4.9 5.3-1.2 2.267-1.8 4.867-1.8 7.8 0 2.867.6 5.433 1.8 7.7 1.267 2.2 2.967 4 5.1 5.4 2.134 1.333 4.534 2 7.2 2 1.734 0 3.367-.233 4.9-.7a15.741 15.741 0 0 0 4.3-2.3c1.4-1 2.667-2.2 3.8-3.6l7.7 9.4c-2.266 2.867-5.4 5.2-9.4 7-4 1.733-8.233 2.6-12.7 2.6Zm49.399 0c-3.866 0-7.2-.833-10-2.5-2.733-1.733-4.866-4.167-6.4-7.3-1.466-3.2-2.2-7.033-2.2-11.5v-32.6h14.2v30.3c0 2.4.4 4.5 1.2 6.3.8 1.733 1.934 3.067 3.4 4 1.467.933 3.267 1.4 5.4 1.4 1.534 0 2.967-.233 4.3-.7 1.334-.533 2.467-1.267 3.4-2.2a10.2 10.2 0 0 0 2.2-3.3c.534-1.267.8-2.633.8-4.1v-31.7h14.2V519h-13.5l-.5-10.9 2.6-1.2c-.8 2.467-2.133 4.7-4 6.7-1.866 2-4.1 3.567-6.7 4.7-2.6 1.133-5.4 1.7-8.4 1.7Zm75.289 0c-2.334 0-4.6-.333-6.8-1s-4.2-1.567-6-2.7c-1.8-1.2-3.3-2.533-4.5-4-1.2-1.533-1.967-3.1-2.3-4.7l3.2-1.2-.7 12.4h-13.4V445h14.2v33.5l-2.7-1.1c.4-1.6 1.166-3.133 2.3-4.6 1.133-1.533 2.566-2.867 4.3-4a21.603 21.603 0 0 1 5.7-2.8c2.066-.667 4.2-1 6.4-1 4.6 0 8.7 1.2 12.3 3.6 3.6 2.333 6.433 5.567 8.5 9.7 2.133 4.133 3.2 8.867 3.2 14.2 0 5.333-1.034 10.067-3.1 14.2-2.067 4.133-4.9 7.4-8.5 9.8-3.534 2.333-7.567 3.5-12.1 3.5Zm-3.4-12.1c2.666 0 4.966-.633 6.9-1.9 2-1.333 3.566-3.133 4.7-5.4 1.133-2.333 1.7-5.033 1.7-8.1 0-3-.567-5.667-1.7-8-1.067-2.333-2.6-4.133-4.6-5.4-2-1.267-4.334-1.9-7-1.9-2.667 0-5 .633-7 1.9s-3.567 3.067-4.7 5.4c-1.134 2.333-1.7 5-1.7 8 0 3.067.566 5.767 1.7 8.1 1.133 2.267 2.7 4.067 4.7 5.4 2 1.267 4.333 1.9 7 1.9ZM506.78 520c-5.733 0-10.733-1.167-15-3.5-4.267-2.333-7.6-5.533-10-9.6-2.4-4.067-3.6-8.733-3.6-14 0-4.067.667-7.8 2-11.2 1.333-3.4 3.2-6.333 5.6-8.8a24.128 24.128 0 0 1 8.5-5.8c3.333-1.4 6.933-2.1 10.8-2.1 3.6 0 6.933.667 10 2 3.067 1.267 5.7 3.1 7.9 5.5 2.267 2.333 4 5.1 5.2 8.3 1.2 3.2 1.733 6.7 1.6 10.5l-.1 4.4h-42.5l-2.3-8.7h33.1l-1.6 1.8v-2.2a9.347 9.347 0 0 0-1.8-4.9c-1-1.467-2.3-2.6-3.9-3.4-1.6-.8-3.4-1.2-5.4-1.2-2.933 0-5.433.567-7.5 1.7-2 1.133-3.533 2.8-4.6 5-1.067 2.2-1.6 4.867-1.6 8 0 3.2.667 5.967 2 8.3 1.4 2.333 3.333 4.167 5.8 5.5 2.533 1.267 5.5 1.9 8.9 1.9 2.333 0 4.467-.367 6.4-1.1 1.933-.733 4-2 6.2-3.8l6.8 9.5a30.323 30.323 0 0 1-6.4 4.4 35.823 35.823 0 0 1-7.2 2.6c-2.467.6-4.9.9-7.3.9Zm54.194 0c-4.6 0-8.734-1.167-12.4-3.5-3.667-2.4-6.567-5.633-8.7-9.7-2.067-4.133-3.1-8.9-3.1-14.3 0-5.267 1.033-9.967 3.1-14.1 2.133-4.133 5-7.4 8.6-9.8 3.666-2.4 7.833-3.6 12.5-3.6 2.466 0 4.833.4 7.1 1.2 2.333.733 4.4 1.767 6.2 3.1 1.866 1.333 3.366 2.833 4.5 4.5 1.133 1.6 1.766 3.3 1.9 5.1l-3.6.6V445h14.2v74h-13.4l-.6-12.2 2.8.3c-.134 1.667-.734 3.267-1.8 4.8-1.067 1.533-2.5 2.933-4.3 4.2-1.734 1.2-3.734 2.167-6 2.9-2.2.667-4.534 1-7 1Zm3.2-11.8c2.666 0 5-.667 7-2s3.566-3.167 4.7-5.5c1.133-2.333 1.7-5.067 1.7-8.2 0-3.067-.567-5.767-1.7-8.1-1.134-2.4-2.7-4.233-4.7-5.5-2-1.333-4.334-2-7-2-2.667 0-5 .667-7 2-1.934 1.267-3.467 3.1-4.6 5.5-1.067 2.333-1.6 5.033-1.6 8.1 0 3.133.533 5.867 1.6 8.2 1.133 2.333 2.666 4.167 4.6 5.5 2 1.333 4.333 2 7 2Z"/>
  <defs>
    <linearGradient id="a" x1="584" x2="176" y1="473" y2="504" gradientUnits="userSpaceOnUse">
      <stop stop-color="#D31DDE"/>
      <stop offset=".501" stop-color="#A61EE8"/>
      <stop offset="1" stop-color="#560BFF"/>
    </linearGradient>
  </defs>
</svg>
